<?xml version="1.0" encoding="utf-8"?>
<svg width="24" height="96" viewBox="0 0 24 96" xmlns="http://www.w3.org/2000/svg"
  xmlns:xlink="http://www.w3.org/1999/xlink">
  <!-- replace unpin icon with filled star -->
  <svg width="24" height="24" viewBox="0 0 24 24" id="prm_unpin">
    <path
      d="M12 17.27L18.18 21l-1.64-7.03L22 9.24l-7.19-.61L12 2 9.19 8.63 2 9.24l5.46 4.73L5.82 21z" />
  </svg>
  <!-- replace pin icon with border star -->
  <svg width="24" height="24" viewBox="0 0 24 24" id="prm_pin" y="24">
    <path
      d="M22 9.24l-7.19-.62L12 2 9.19 8.63 2 9.24l5.46 4.73L5.82 21 12 17.27 18.18 21l-1.63-7.03L22 9.24zM12 15.4l-3.76 2.27 1-4.28-3.32-2.88 4.38-.38L12 6.1l1.71 4.04 4.38.38-3.32 2.88 1 4.28L12 15.4z" />
  </svg>
  <!-- replace problem report icon with wrench -->
  <svg height="24" viewBox="0 96 960 960" width="24" y="48" id="exclamation-mark">
    <path
      d="m625.5 772.5 51-50q6-6 6-15t-6.106-15.063L538 554q4.5-11 6.75-22.5t2.25-25.362q0-56.437-40.06-96.538-40.06-40.1-96.44-40.1-18.5 0-35.5 5.029-17 5.03-33 13.971l88.5 88-50.5 50-88-88q-9 16-13.75 33T273.5 507q0 56.5 39.75 96.25T409.5 643q13.277 0 25.021-2.25 11.745-2.25 22.979-6.75l138.437 138.394Q602 778.5 610.75 778.5t14.75-6ZM480 966q-80.907 0-152.065-30.763-71.159-30.763-123.797-83.5Q151.5 799 120.75 727.913 90 656.825 90 576q0-80.907 30.763-152.065 30.763-71.159 83.5-123.797Q257 247.5 328.087 216.75 399.175 186 480 186q80.907 0 152.065 30.763 71.159 30.763 123.797 83.5Q808.5 353 839.25 424.087 870 495.175 870 576q0 80.906-30.763 152.065-30.763 71.159-83.5 123.797Q703 904.5 631.913 935.25 560.825 966 480 966Zm0-75q131.5 0 223.25-91.75T795 576q0-131.5-91.75-223.25T480 261q-131.5 0-223.25 91.75T165 576q0 131.5 91.75 223.25T480 891Zm0-315Z" />
  </svg>
  <!-- replace problem report close icon with X -->
  <svg height="24" viewBox="0 96 960 960" width="24" y="72" id="close-report">
    <path
      d="m338 770 142-142 142 142 52-52-142-142 142-142-52-52-142 142-142-142-52 52 142 142-142 142 52 52Zm142 196q-80.907 0-152.065-30.763-71.159-30.763-123.797-83.5Q151.5 799 120.75 727.913 90 656.825 90 576q0-80.907 30.763-152.065 30.763-71.159 83.5-123.797Q257 247.5 328.087 216.75 399.175 186 480 186q80.907 0 152.065 30.763 71.159 30.763 123.797 83.5Q808.5 353 839.25 424.087 870 495.175 870 576q0 80.906-30.763 152.065-30.763 71.159-83.5 123.797Q703 904.5 631.913 935.25 560.825 966 480 966Zm0-75q131.5 0 223.25-91.75T795 576q0-131.5-91.75-223.25T480 261q-131.5 0-223.25 91.75T165 576q0 131.5 91.75 223.25T480 891Zm0-315Z" />
  </svg>
  <!-- note icon for scores in resource type filter bar -->
  <svg xmlns="http://www.w3.org/2000/svg" height="24px" viewBox="0 -960 960 960" width="24px"
    fill="#e8eaed" id="scores">
    <path
      d="M400-120q-66 0-113-47t-47-113q0-66 47-113t113-47q23 0 42.5 5.5T480-418v-422h240v160H560v400q0 66-47 113t-113 47Z" />
  </svg>
</svg>
